<svg width="1440" height="1024" viewBox="0 0 1440 1024" xmlns="http://www.w3.org/2000/svg" role="img" aria-labelledby="title desc">
  <title id="title">Core Diagnostic Loop Wireframe</title>
  <desc id="desc">Workspace overview, live capture, and annotation drawer screens.</desc>
  <rect width="1440" height="1024" fill="#F1F5F9" />
  <g font-family="Inter, Arial, sans-serif" fill="#0F172A">
    <text x="72" y="88" font-size="32" font-weight="600">ReactT3tr15 — Core Loop</text>
  </g>
  <g transform="translate(72, 144)">
    <rect width="400" height="736" rx="32" fill="#FFFFFF" stroke="#CBD5F5" stroke-width="2" />
    <text x="32" y="72" font-size="24" font-weight="600">Workspace Overview</text>
    <rect x="32" y="112" width="336" height="56" rx="16" fill="#E0F2FE" />
    <text x="48" y="148" font-size="16" font-weight="600">Sites · Devices · Sessions</text>
    <rect x="32" y="184" width="336" height="96" rx="24" fill="#F8FAFC" stroke="#E2E8F0" />
    <text x="52" y="222" font-size="18" font-weight="600">Site · Lab HQ</text>
    <text x="52" y="252" font-size="14" fill="#475569">Anomalies: 3 · Last scan: 5m ago</text>
    <rect x="32" y="296" width="336" height="320" rx="24" fill="#F8FAFC" stroke="#E2E8F0" />
    <text x="52" y="336" font-size="18" font-weight="600">Session History</text>
    <text x="52" y="372" font-size="14" fill="#475569">Heatmap thumbnails + severity badges.</text>
  </g>
  <g transform="translate(520, 144)">
    <rect width="424" height="736" rx="32" fill="#FFFFFF" stroke="#CBD5F5" stroke-width="2" />
    <text x="32" y="72" font-size="24" font-weight="600">Live Capture</text>
    <rect x="32" y="112" width="360" height="224" rx="28" fill="#DBEAFE" />
    <text x="92" y="200" font-size="20" font-weight="600">Heatmap visual</text>
    <rect x="32" y="360" width="360" height="88" rx="24" fill="#F1F5F9" stroke="#E2E8F0" />
    <text x="52" y="402" font-size="18" font-weight="600">Risk Score · 7.8</text>
    <text x="52" y="430" font-size="14" fill="#475569">Rogue AP detected near LabNet-Guest</text>
    <rect x="32" y="464" width="360" height="64" rx="16" fill="#1D4ED8" />
    <text x="94" y="504" font-size="18" font-weight="600" fill="#FFFFFF">Annotate Finding</text>
    <text x="32" y="560" font-size="14" fill="#64748B">Live sample rate · 240 pkt/s</text>
  </g>
  <g transform="translate(992, 144)">
    <rect width="376" height="736" rx="32" fill="#0F172A" opacity="0.9" />
    <text x="1024" y="200" font-size="22" font-weight="600" fill="#F8FAFC">Annotation Drawer</text>
    <rect x="1024" y="232" width="320" height="64" rx="18" fill="#1E293B" />
    <text x="1048" y="272" font-size="16" font-weight="600" fill="#F8FAFC">Tag Device</text>
    <rect x="1024" y="312" width="320" height="120" rx="20" fill="#1E293B" />
    <text x="1048" y="352" font-size="14" fill="#E2E8F0">Rogue AP broadcasting hidden SSID. Captured frames stored for export.</text>
    <rect x="1024" y="448" width="320" height="48" rx="12" fill="#334155" />
    <text x="1048" y="480" font-size="14" fill="#E2E8F0">+ Add mitigation step</text>
    <rect x="1024" y="512" width="320" height="64" rx="16" fill="#F97316" />
    <text x="1076" y="552" font-size="18" font-weight="600" fill="#0F172A">Escalate Incident</text>
  </g>
</svg>
