<svg width="1440" height="1024" viewBox="0 0 1440 1024" xmlns="http://www.w3.org/2000/svg" role="img" aria-labelledby="title desc">
  <title id="title">Retention Hooks Wireframe</title>
  <desc id="desc">Notification stack, insights digest, and community hooks.</desc>
  <rect width="1440" height="1024" fill="#F8FAFC" />
  <g font-family="Inter, Arial, sans-serif" fill="#0F172A">
    <text x="72" y="92" font-size="32" font-weight="600">ReactT3tr15 — Retention Hooks</text>
  </g>
  <g transform="translate(72, 152)">
    <rect width="384" height="720" rx="32" fill="#FFFFFF" stroke="#CBD5F5" stroke-width="2" />
    <text x="32" y="68" font-size="24" font-weight="600">Scheduled Notification</text>
    <rect x="32" y="112" width="320" height="96" rx="24" fill="#FEE2E2" stroke="#FECACA" />
    <text x="52" y="154" font-size="18" font-weight="600" fill="#B91C1C">Threat Detected · Lab HQ</text>
    <text x="52" y="186" font-size="14" fill="#7F1D1D">Rogue beacon 3m from baseline.</text>
    <rect x="32" y="232" width="320" height="64" rx="16" fill="#1D4ED8" />
    <text x="82" y="272" font-size="18" font-weight="600" fill="#FFFFFF">Review Incident</text>
    <text x="32" y="320" font-size="14" fill="#64748B">Next nudge scheduled · Fri 09:00</text>
  </g>
  <g transform="translate(520, 152)">
    <rect width="384" height="720" rx="32" fill="#FFFFFF" stroke="#CBD5F5" stroke-width="2" />
    <text x="32" y="68" font-size="24" font-weight="600">Insights Digest</text>
    <rect x="32" y="112" width="320" height="64" rx="16" fill="#E0F2FE" />
    <text x="52" y="152" font-size="16" font-weight="600">Week of Jan 6 · Network Health 92%</text>
    <rect x="32" y="192" width="320" height="112" rx="24" fill="#F8FAFC" stroke="#E2E8F0" />
    <text x="52" y="232" font-size="18" font-weight="600">Top Insight</text>
    <text x="52" y="264" font-size="14" fill="#475569">Guest VLAN saw 18% increase in broadcast traffic.</text>
    <rect x="32" y="320" width="320" height="64" rx="16" fill="#0EA5E9" />
    <text x="64" y="360" font-size="18" font-weight="600" fill="#FFFFFF">Adjust Cadence</text>
    <text x="32" y="420" font-size="14" fill="#64748B">Shared with: SecOps, Research Lab</text>
  </g>
  <g transform="translate(968, 152)">
    <rect width="384" height="720" rx="32" fill="#111827" />
    <text x="1000" y="220" font-size="22" font-weight="600" fill="#F8FAFC">Community Thread</text>
    <rect x="1000" y="252" width="320" height="48" rx="14" fill="#1F2937" />
    <text x="1024" y="284" font-size="14" fill="#E2E8F0">Filter · Open Alerts · Last 7 days</text>
    <rect x="1000" y="312" width="320" height="96" rx="20" fill="#1F2937" />
    <text x="1024" y="352" font-size="16" font-weight="600" fill="#F8FAFC">@jkim — Shared mitigation playbook</text>
    <text x="1024" y="384" font-size="14" fill="#CBD5F5">"Used ReactT3tr15 capture to isolate hidden SSID on campus."</text>
    <rect x="1000" y="424" width="320" height="48" rx="14" fill="#2563EB" />
    <text x="1044" y="456" font-size="16" font-weight="600" fill="#F8FAFC">Join Conversation</text>
    <text x="1000" y="512" font-size="14" fill="#E5E7EB">Leaderboard · 240 pts · Rank 4/28</text>
  </g>
</svg>
