<svg width="1284" height="2778" viewBox="0 0 1284 2778" xmlns="http://www.w3.org/2000/svg">
  <defs>
    <linearGradient id="splash-bg" x1="0.2" y1="0" x2="0.8" y2="1">
      <stop offset="0%" stop-color="#0f172a" />
      <stop offset="45%" stop-color="#091021" />
      <stop offset="100%" stop-color="#020617" />
    </linearGradient>
    <radialGradient id="glow" cx="0.5" cy="0.3" r="0.6">
      <stop offset="0%" stop-color="#38bdf8" stop-opacity="0.55" />
      <stop offset="100%" stop-color="#38bdf8" stop-opacity="0" />
    </radialGradient>
    <linearGradient id="stripe" x1="0" y1="0" x2="1" y2="1">
      <stop offset="0%" stop-color="#22d3ee" stop-opacity="0.65" />
      <stop offset="100%" stop-color="#6366f1" stop-opacity="0.15" />
    </linearGradient>
  </defs>
  <rect width="1284" height="2778" fill="url(#splash-bg)" />
  <rect x="0" y="0" width="1284" height="1800" fill="url(#glow)" />
  <g fill="url(#stripe)" opacity="0.35">
    <rect x="180" y="620" width="180" height="180" rx="32" />
    <rect x="360" y="620" width="180" height="180" rx="32" />
    <rect x="540" y="620" width="180" height="180" rx="32" />
    <rect x="720" y="620" width="180" height="180" rx="32" />
    <rect x="900" y="620" width="180" height="180" rx="32" />
    <rect x="360" y="800" width="180" height="180" rx="32" />
    <rect x="540" y="800" width="180" height="180" rx="32" />
    <rect x="720" y="800" width="180" height="180" rx="32" />
    <rect x="540" y="980" width="180" height="180" rx="32" />
  </g>
  <rect x="232" y="2060" width="820" height="48" rx="24" fill="#0ea5e9" opacity="0.25" />
</svg>
